<svg xmlns="http://www.w3.org/2000/svg" viewBox="0 0 1080 1080" role="img" aria-labelledby="title desc">
  <title id="title">Banduthu 2HAND logo</title>
  <desc id="desc">Brown vintage boutique logo with a wrapped top, jewelry accents, and Banduthu lettering.</desc>
  <rect width="1080" height="1080" fill="#4a2a17"/>
  <g opacity="0.9" stroke="#15100d" stroke-width="14" stroke-linecap="round" stroke-linejoin="round">
    <path d="M213 354c125 33 252 112 334 185 33-33 219-151 320-190 36 10 52 40 42 75-103 45-216 113-302 195l-124 1C398 532 307 464 188 419c-3-33 8-54 25-65z" fill="#74695b"/>
    <path d="M334 847c47-112 90-207 143-276 31 38 78 38 112 4 48 76 94 178 148 279-112 55-285 51-403-7z" fill="#74695b"/>
    <path d="M477 555c28 28 77 29 109 1"/>
    <path d="M538 552c-13 75-13 166 2 252"/>
    <path d="M245 418c85 34 166 91 231 149"/>
    <path d="M834 418c-87 35-170 94-233 149"/>
  </g>
  <g fill="none" stroke="#d3ad61" stroke-width="9" stroke-linecap="round">
    <path d="M557 147c-54 93-20 136 8 192 32-57 56-113 4-193"/>
    <circle cx="565" cy="365" r="17" fill="#d3ad61"/>
    <circle cx="565" cy="409" r="23" fill="#d3ad61"/>
  </g>
  <g fill="#d3ad61" stroke="#2a180f" stroke-width="10">
    <ellipse cx="168" cy="471" rx="32" ry="49" transform="rotate(-19 168 471)"/>
    <ellipse cx="220" cy="448" rx="31" ry="48" transform="rotate(-18 220 448)"/>
  </g>
  <g opacity="0.72" fill="#806b5a" stroke="#20140e" stroke-width="9" stroke-linejoin="round">
    <path d="M823 605h89l47 160H776z"/>
    <path d="M161 671l112-48 66 160-123 47z"/>
    <path d="M844 808c13-68 77-71 94 0z"/>
    <path d="M798 808h160l-22 76H822z"/>
  </g>
  <text x="541" y="650" text-anchor="middle" font-family="Brush Script MT, Pacifico, cursive" font-size="190" font-weight="700" fill="#f0d7c5" stroke="#3b2113" stroke-width="18" paint-order="stroke">
    Banduthu
  </text>
  <text x="540" y="735" text-anchor="middle" font-family="Georgia, serif" font-size="57" letter-spacing="18" fill="#f0d7c5">
    2HAND
  </text>
</svg>
